<?xml version="1.0" standalone="no"?>
<!DOCTYPE svg PUBLIC "-//W3C//DTD SVG 1.0//EN" "http://www.w3.org/TR/2001/REC-SVG-20010904/DTD/svg10.dtd">
<svg xmlns="http://www.w3.org/2000/svg" xmlns:xlink="http://www.w3.org/1999/xlink" id="body_1" width="20" height="15">

  <g transform="matrix(0.029296875 0 0 0.029296875 2.5000005 -0)">
    <path d="M367.2 412.5L99.5 144.8C 77.1 176.1 64 214.5 64 256C 64 362 150 448 256 448C 297.5 448 335.9 434.9 367.2 412.5zM412.5 367.2C 434.9 335.9 448 297.5 448 256C 448 150 362 64 256 64C 214.5 64 176.1 77.1 144.8 99.5L144.8 99.5L412.5 367.2zM0 256C 0 164.54001 48.79332 80.02748 128 34.297485C 207.2067 -11.432495 304.79333 -11.432495 384.00003 34.2975C 463.20673 80.02751 512 164.54001 512 256C 512 347.46 463.20667 431.97253 384 477.7025C 304.7933 523.4325 207.20665 523.4325 127.99997 477.7025C 48.79329 431.97247 0 347.46 0 256z" stroke="none" fill="#000000" fill-rule="nonzero" />
  </g>
</svg>